name precision_landing05_filtered_grf.mot
datacolumns 37
datarows 11
range 2.007000 2.012000
endheader
time	1_ground_force_vx	1_ground_force_vy	1_ground_force_vz	1_ground_force_px	1_ground_force_py	1_ground_force_pz	1_ground_torque_x	1_ground_torque_y	1_ground_torque_z	2_ground_force_vx	2_ground_force_vy	2_ground_force_vz	2_ground_force_px	2_ground_force_py	2_ground_force_pz	2_ground_torque_x	2_ground_torque_y	2_ground_torque_z	3_ground_force_vx	3_ground_force_vy	3_ground_force_vz	3_ground_force_px	3_ground_force_py	3_ground_force_pz	3_ground_torque_x	3_ground_torque_y	3_ground_torque_z	4_ground_force_vx	4_ground_force_vy	4_ground_force_vz	4_ground_force_px	4_ground_force_py	4_ground_force_pz	4_ground_torque_x	4_ground_torque_y	4_ground_torque_z
            2.007000	          -13.999449	          279.010634	           -6.217539	            0.099123	            0.000000	            0.202506	           -0.470172	            9.370573	           -0.208816	           11.461649	          334.780142	            1.133420	           -0.127771	            0.000000	            0.210795	            0.070691	            2.064788	            0.006990	           10.509013	           -1.746289	           -4.463652	            0.381199	            1.275802	            1.884862	           -0.016404	            0.002726	            0.006967	           -5.695900	           -0.598436	           -0.521207	           -0.351458	            1.268427	            1.872599	            0.024509	            0.002575	            0.002243
            2.007500	          -13.980937	          279.077763	           -6.386985	            0.099145	            0.000000	            0.202640	           -0.469626	            9.374350	           -0.214542	           11.513048	          335.038979	            1.035091	           -0.127820	            0.000000	            0.210887	            0.070626	            2.055271	            0.006350	           10.534376	           -1.748822	           -4.475123	            0.381202	            1.275802	            1.884861	           -0.016243	            0.002696	            0.006900	           -5.720743	           -0.601559	           -0.514250	           -0.351458	            1.268425	            1.872597	            0.024317	            0.002557	            0.002186
            2.008000	          -13.962757	          279.145462	           -6.554942	            0.099167	            0.000000	            0.202775	           -0.469088	            9.378083	           -0.220218	           11.565730	          335.296201	            0.939009	           -0.127868	            0.000000	            0.210979	            0.070589	            2.046396	            0.005731	           10.560999	           -1.751050	           -4.486266	            0.381204	            1.275802	            1.884859	           -0.016051	            0.002661	            0.006818	           -5.745833	           -0.604407	           -0.507080	           -0.351459	            1.268424	            1.872595	            0.024099	            0.002535	            0.002127
            2.008500	          -13.944880	          279.213582	           -6.721187	            0.099188	            0.000000	            0.202910	           -0.468558	            9.381771	           -0.225837	           11.619612	          335.551824	            0.845178	           -0.127917	            0.000000	            0.211070	            0.070578	            2.038147	            0.005134	           10.588725	           -1.752921	           -4.497211	            0.381207	            1.275802	            1.884857	           -0.015828	            0.002620	            0.006723	           -5.770995	           -0.606938	           -0.499691	           -0.351459	            1.268422	            1.872592	            0.023855	            0.002509	            0.002066
            2.009000	          -13.927272	          279.281978	           -6.885508	            0.099210	            0.000000	            0.203047	           -0.468033	            9.385410	           -0.231391	           11.674616	          335.805866	            0.753585	           -0.127967	            0.000000	            0.211159	            0.070593	            2.030506	            0.004557	           10.617428	           -1.754358	           -4.508002	            0.381209	            1.275802	            1.884855	           -0.015575	            0.002574	            0.006613	           -5.796065	           -0.609108	           -0.492109	           -0.351460	            1.268421	            1.872590	            0.023586	            0.002479	            0.002003
            2.009500	          -13.909894	          279.350507	           -7.047714	            0.099231	            0.000000	            0.203183	           -0.467513	            9.389003	           -0.236874	           11.730671	          336.058346	            0.664202	           -0.128016	            0.000000	            0.211248	            0.070632	            2.023456	            0.003999	           10.646969	           -1.755285	           -4.518681	            0.381212	            1.275802	            1.884853	           -0.015292	            0.002521	            0.006490	           -5.820884	           -0.610875	           -0.484363	           -0.351461	            1.268419	            1.872587	            0.023294	            0.002445	            0.001938
            2.010000	          -13.892702	          279.419023	           -7.207629	            0.099252	            0.000000	            0.203321	           -0.466997	            9.392550	           -0.242281	           11.787718	          336.309283	            0.576987	           -0.128066	            0.000000	            0.211337	            0.070695	            2.016975	            0.003460	           10.677202	           -1.755627	           -4.529290	            0.381214	            1.275802	            1.884851	           -0.014981	            0.002463	            0.006355	           -5.845307	           -0.612200	           -0.476486	           -0.351461	            1.268417	            1.872585	            0.022980	            0.002407	            0.001873
            2.010500	          -13.875649	          279.487383	           -7.365098	            0.099273	            0.000000	            0.203460	           -0.466484	            9.396055	           -0.247606	           11.845703	          336.558697	            0.491882	           -0.128116	            0.000000	            0.211425	            0.070782	            2.011044	            0.002939	           10.708041	           -1.755268	           -4.539712	            0.381215	            1.275802	            1.884849	           -0.014641	            0.002400	            0.006207	           -5.869197	           -0.613043	           -0.468561	           -0.351462	            1.268416	            1.872582	            0.022646	            0.002365	            0.001808
            2.011000	          -13.858686	          279.555442	           -7.519988	            0.099294	            0.000000	            0.203599	           -0.465972	            9.399522	           -0.252845	           11.904586	          336.806607	            0.408818	           -0.128166	            0.000000	            0.211512	            0.070890	            2.005641	            0.002434	           10.739246	           -1.754186	           -4.550135	            0.381216	            1.275802	            1.884848	           -0.014275	            0.002332	            0.006048	           -5.892435	           -0.613375	           -0.460579	           -0.351462	            1.268415	            1.872580	            0.022295	            0.002321	            0.001743
            2.011500	          -13.841758	          279.623053	           -7.672185	            0.099314	            0.000000	            0.203738	           -0.465460	            9.402957	           -0.257995	           11.964340	          337.053034	            0.327710	           -0.128217	            0.000000	            0.211599	            0.071020	            2.000744	            0.001945	           10.770645	           -1.752323	           -4.560585	            0.381217	            1.275801	            1.884846	           -0.013885	            0.002259	            0.005879	           -5.914913	           -0.613168	           -0.452582	           -0.351463	            1.268414	            1.872577	            0.021928	            0.002273	            0.001678
            2.012000	          -13.824811	          279.690065	           -7.821598	            0.099335	            0.000000	            0.203879	           -0.464948	            9.406367	           -0.263051	           12.024948	          337.297999	            0.248463	           -0.128269	            0.000000	            0.211685	            0.071171	            1.996333	            0.001471	           10.802058	           -1.749626	           -4.571083	            0.381218	            1.275801	            1.884845	           -0.013474	            0.002182	            0.005702	           -5.936535	           -0.612401	           -0.444615	           -0.351464	            1.268413	            1.872575	            0.021548	            0.002223	            0.001614
